<?xml version="1.0" encoding="utf-8"?>
<!-- Generator: Adobe Illustrator 18.0.0, SVG Export Plug-In . SVG Version: 6.00 Build 0)  -->
<!DOCTYPE svg PUBLIC "-//W3C//DTD SVG 1.1//EN" "http://www.w3.org/Graphics/SVG/1.1/DTD/svg11.dtd">
<svg version="1.1" xmlns="http://www.w3.org/2000/svg" xmlns:xlink="http://www.w3.org/1999/xlink" x="0px" y="0px"
	 viewBox="0 0 100 150" enable-background="new 0 0 100 150" xml:space="preserve">
<g id="Camada_1" display="none">
</g>
<g id="Camada_2">
	<g>
		<path fill="#1D304C" d="M94.3,77.4H88v-8.8c0-1.6-0.4-3-1-4.4c0.7-0.8,1.1-1.8,0.9-3c-0.1-0.8-3.2-18-29.7-20.9
			c0.4-0.9,0.7-1.8,0.7-2.9V37c0-3.5-2.9-6.4-6.4-6.4h-4c-3.5,0-6.4,2.9-6.4,6.4v0.4c0,1,0.2,1.9,0.6,2.8
			c-27.5,2.7-30.6,20.2-30.7,21c-0.2,1.1,0.2,2.2,0.9,3c-0.6,1.3-1,2.8-1,4.4v8.8H5.7c-1.9,0-3.5,1.6-3.5,3.5s1.6,3.5,3.5,3.5H12
			v14.3c0,11.4,9.3,20.7,20.7,20.7h34.5c11.4,0,20.7-9.3,20.7-20.7V84.4h6.3c1.9,0,3.5-1.6,3.5-3.5S96.2,77.4,94.3,77.4z M50,46.9
			c19.1,0,26.5,7,29.3,11.6c-0.5-0.1-1.1-0.1-1.7-0.1H22.3c-0.6,0-1.1,0.1-1.7,0.1C23.5,53.9,30.9,46.9,50,46.9z M81,98.8
			c0,7.5-6.1,13.7-13.7,13.7H32.7c-7.5,0-13.7-6.1-13.7-13.7V68.6c0-1.8,1.5-3.3,3.3-3.3h55.3c1.8,0,3.3,1.5,3.3,3.3V98.8z"/>
		<path fill="#1D304C" d="M70.1,73.7c-1.9,0-3.5,1.6-3.5,3.5v23.4c0,1.9,1.6,3.5,3.5,3.5s3.5-1.6,3.5-3.5V77.2
			C73.6,75.2,72,73.7,70.1,73.7z"/>
	</g>
</g>
</svg>
