<?xml version="1.0" encoding="utf-8"?>
<!-- Generator: Adobe Illustrator 18.0.0, SVG Export Plug-In . SVG Version: 6.00 Build 0)  -->
<!DOCTYPE svg PUBLIC "-//W3C//DTD SVG 1.1//EN" "http://www.w3.org/Graphics/SVG/1.1/DTD/svg11.dtd">
<svg version="1.1" xmlns="http://www.w3.org/2000/svg" xmlns:xlink="http://www.w3.org/1999/xlink" x="0px" y="0px"
	 viewBox="0 0 100 150" enable-background="new 0 0 100 150" xml:space="preserve">
<g id="Camada_1" display="none">
</g>
<g id="Camada_2">
	<g>
		<path fill="#1D304C" d="M41.8,103.5c1.8,1.1,3.9,1.7,6,1.7s4.3-0.6,6-1.7c7-4.3,11.2-11.1,10.8-17.5c-0.3-3.9-2.4-6.9-5.6-8.2
			c-1.5-0.6-3-1-4.5-1c-2.7,0-5,1.1-6.6,2.4c-1.7-1.3-3.9-2.4-6.6-2.4c-1.5,0-3,0.3-4.5,1c-3.3,1.4-5.4,4.4-5.6,8.2
			C30.6,92.3,34.8,99.2,41.8,103.5z M38.1,86.5c0.1-1.8,1.1-2.2,1.4-2.3c0.6-0.3,1.3-0.4,1.8-0.4c2.2,0,3.6,2.3,3.6,2.3
			c1.3,2.4,4.8,2.4,6.1,0l0,0c0,0,1.4-2.3,3.6-2.3c0.6,0,1.2,0.1,1.8,0.4c0.3,0.1,1.2,0.5,1.4,2.3c0.2,3-2,7.6-7.4,11
			c-1.4,0.8-3.4,0.8-4.8,0C40.1,94.2,37.8,89.5,38.1,86.5z"/>
		<path fill="#1D304C" d="M76.4,58.4h-9.7c0-0.2,0.1-0.4,0.1-0.5v-6.9c0-1.9-1.6-3.5-3.5-3.5H33.6c-1.9,0-3.5,1.6-3.5,3.5v6.9
			c0,0.2,0,0.4,0.1,0.5h-8.4c-0.4-0.2-0.8-0.2-1.3-0.2c-0.5,0-0.9,0.1-1.3,0.3C13,58.4,7.9,63.6,7.9,69.9v42
			c0,6.3,5.2,11.5,11.5,11.5h57c6.3,0,11.5-5.2,11.5-11.5v-42C87.9,63.5,82.7,58.4,76.4,58.4z M17,115.7c-1.3-0.8-2.1-2.2-2.1-3.8
			v-42c0-1.6,0.9-3,2.1-3.8V115.7z M37.1,57.8v-3.4h22.6v3.4c0,0.2,0,0.4,0.1,0.5H37C37.1,58.2,37.1,58,37.1,57.8z M69.4,116.4H24
			v-51h45.3V116.4z M80.9,111.9c0,2.5-2,4.5-4.5,4.5h0v-51h0c2.5,0,4.5,2,4.5,4.5V111.9z"/>
		<path fill="#1D304C" d="M91.9,45.5c-0.4-0.9-1.3-1.4-2.2-1.5c-4.4-0.1-7.9-3.7-7.9-8.1c0-1.9,0.7-3.7,1.9-5.2
			c0.6-0.7,0.8-1.8,0.4-2.6c-0.4-0.9-1.3-1.4-2.2-1.5c-0.1,0-0.2,0-0.3,0c-7.2,0-13.1,5.9-13.1,13.1s5.9,13.1,13.1,13.1
			c3.9,0,7.5-1.7,10-4.7C92.2,47.4,92.3,46.4,91.9,45.5z M81.5,47.8c-4.5,0-8.1-3.6-8.1-8.1c0-2.9,1.5-5.4,3.7-6.8
			c-0.2,1-0.4,2-0.4,3c0,5,2.8,9.3,7,11.6C83,47.7,82.3,47.8,81.5,47.8z"/>
	</g>
</g>
</svg>
