<?xml version="1.0" encoding="utf-8"?>
<!-- Generator: Adobe Illustrator 18.0.0, SVG Export Plug-In . SVG Version: 6.00 Build 0)  -->
<!DOCTYPE svg PUBLIC "-//W3C//DTD SVG 1.1//EN" "http://www.w3.org/Graphics/SVG/1.1/DTD/svg11.dtd">
<svg version="1.1" xmlns="http://www.w3.org/2000/svg" xmlns:xlink="http://www.w3.org/1999/xlink" x="0px" y="0px"
	 viewBox="0 0 100 150" enable-background="new 0 0 100 150" xml:space="preserve">
<g id="Camada_1" display="none">
</g>
<g id="Camada_2">
	<path fill="#1D304C" d="M94.7,91.9c0-0.3,0-0.6-0.1-0.9c-4.7-18.7-8.5-25.5-11.2-27.9V36.1c0-1.9-1.6-3.5-3.5-3.5s-3.5,1.6-3.5,3.5
		v1.1H22.1v-1.1c0-1.9-1.6-3.5-3.5-3.5s-3.5,1.6-3.5,3.5v28.7c0,0,0,0,0,0.1c-2.5,3.4-5.8,10.6-9.7,26.4c-0.1,0.3-0.1,0.6-0.1,0.9
		c0,5,3.2,9.3,7.7,10.9l-2.6,10c-0.5,1.9,0.6,3.8,2.5,4.3c0.3,0.1,0.6,0.1,0.9,0.1c1.6,0,3-1,3.4-2.6l2.9-11.1l57.1-0.1l2.5,9.7
		c0.4,1.6,1.8,2.6,3.4,2.6c0.3,0,0.6,0,0.9-0.1c1.9-0.5,3-2.4,2.5-4.3l-2.1-8.1C90.2,102.9,94.7,97.9,94.7,91.9z M22.1,44.2h54.3v6
		H51.1c-0.9,0-1.8,0.3-2.5,0.7c-0.7-0.4-1.6-0.7-2.5-0.7h-24V44.2z M76.4,55.3v6.6l-25.3,0.1l0-6.7L76.4,55.3z M22.1,55.2l24,0
		l0,6.6l-24,0.1V55.2z M20.7,69l58.5-0.1c1.5,1.7,3.8,7.7,5.9,14.4H14.9C17,76.6,19.2,70.7,20.7,69z M83.1,96.6l-66.2,0.1l0,1.7
		c0,0,0,0,0,0v-1.7c-2.4,0-4.4-1.9-4.6-4.2c0.2-0.7,0.4-1.5,0.6-2.3h74.2c0.2,0.7,0.4,1.4,0.6,2.1C87.5,94.7,85.5,96.6,83.1,96.6z"
		/>
</g>
</svg>
