<?xml version="1.0" encoding="utf-8"?>
<!-- Generator: Adobe Illustrator 18.0.0, SVG Export Plug-In . SVG Version: 6.00 Build 0)  -->
<!DOCTYPE svg PUBLIC "-//W3C//DTD SVG 1.1//EN" "http://www.w3.org/Graphics/SVG/1.1/DTD/svg11.dtd">
<svg version="1.1" xmlns="http://www.w3.org/2000/svg" xmlns:xlink="http://www.w3.org/1999/xlink" x="0px" y="0px"
	 viewBox="0 0 100 150" enable-background="new 0 0 100 150" xml:space="preserve">
<g id="Camada_1" display="none">
</g>
<g id="Camada_2">
	<path fill="#1D304C" d="M78.6,80.6c-0.5,0-1.1,0-1.6,0.1l-4.6-30.8H84c1.9,0,3.5-1.6,3.5-3.5s-1.6-3.5-3.5-3.5H52.3
		c-1.9,0-3.5,1.6-3.5,3.5s1.6,3.5,3.5,3.5h14.1l3.1,20.6l-22.1,5.3l-0.8-4.2h5.8c1.9,0,3.5-1.6,3.5-3.5s-1.6-3.5-3.5-3.5H33.8
		c-1.9,0-3.5,1.6-3.5,3.5s1.6,3.5,3.5,3.5h6.6l1.5,7.3l-5.9,5c-3.8-3.3-8.7-5.2-14.1-5.2c-12,0-21.7,9.7-21.7,21.7
		s9.7,21.7,21.7,21.7c11.2,0,20.4-8.5,21.5-19.3l5.9-0.6c0.1,0,0.1,0,0.2,0c0,0,0.1,0,0.1,0c0,0,0.1,0,0.1,0c0.1,0,0.2-0.1,0.3-0.1
		c0.1,0,0.2-0.1,0.3-0.1c0.1,0,0.2-0.1,0.3-0.1c0.1,0,0.2-0.1,0.2-0.2c0.1-0.1,0.1-0.1,0.2-0.2c0.1-0.1,0.1-0.1,0.2-0.2
		c0,0,0,0,0.1-0.1l8.9-10c-2,3.3-3.2,7.2-3.2,11.3c0,12,9.7,21.7,21.7,21.7s21.7-9.7,21.7-21.7S90.6,80.6,78.6,80.6z M63.6,78
		L50.8,92.5l-2.2-10.9L63.6,78z M45.4,96.4l-2.1,0.2c-0.5-3-1.7-5.9-3.3-8.3l3.2-2.8L45.4,96.4z M34.6,92.9c0.8,1.4,1.4,2.8,1.7,4.4
		l-7.8,0.8L34.6,92.9z M21.9,114.9c-8.1,0-14.7-6.6-14.7-14.7c0-8.1,6.6-14.7,14.7-14.7c3.2,0,6.2,1.1,8.7,2.9L17.2,99.8
		c-1,0.9-1.3,2.3-0.8,3.5c0.5,1.1,1.6,1.8,2.8,1.8c0.1,0,0.2,0,0.3,0l16.8-1.7C34.8,110,28.9,114.9,21.9,114.9z M70.7,79l0.4,2.9
		c-2.2,0.8-4.2,2-6,3.4L70.7,79z M78.6,117c-8.1,0-14.7-6.6-14.7-14.7c0-5.8,3.4-10.8,8.3-13.2l2,13.6c0.2,1.5,1.5,2.6,3,2.6
		c0.1,0,0.3,0,0.4,0c1.6-0.2,2.8-1.8,2.5-3.4l-2.1-14.2c0.2,0,0.4,0,0.6,0c8.1,0,14.7,6.6,14.7,14.7C93.3,110.4,86.7,117,78.6,117z"
		/>
</g>
</svg>
