<?xml version="1.0" encoding="utf-8"?>
<!-- Generator: Adobe Illustrator 18.0.0, SVG Export Plug-In . SVG Version: 6.00 Build 0)  -->
<!DOCTYPE svg PUBLIC "-//W3C//DTD SVG 1.1//EN" "http://www.w3.org/Graphics/SVG/1.1/DTD/svg11.dtd">
<svg version="1.1" xmlns="http://www.w3.org/2000/svg" xmlns:xlink="http://www.w3.org/1999/xlink" x="0px" y="0px"
	 viewBox="0 0 100 150" enable-background="new 0 0 100 150" xml:space="preserve">
<g id="Camada_1" display="none">
</g>
<g id="Camada_2">
	<g>
		<path fill="#1D304C" d="M28.3,100.5l1.1,1.4h37.1c4,0,7.7-2.4,9.2-6.1l0.1-0.1l4.6-12.2l2.3,16.2c-5.1,1.6-8.9,6.4-8.9,12
			c0,6.9,5.6,12.6,12.6,12.6c6.9,0,12.6-5.6,12.6-12.6c0-5.6-3.7-10.4-8.9-12c0-0.3,0-0.6,0-0.9l-9.3-70.4c-0.3-2-2.2-3.4-4.2-3.2
			c-2,0.3-3.4,2.2-3.2,4.2l0.7,4.9H50.9c-2.1,0-3.7,1.7-3.7,3.7s1.7,3.7,3.7,3.7h24.2l3.1,26.5c-0.1,0.1-0.2,0.3-0.2,0.5l-9.1,24.3
			c-0.4,0.9-1.3,1.5-2.4,1.5H32.8c-2.2-2.2-7.3-6.5-13.8-7c-9.4-0.7-14.2,4-14.7,4.6C2.9,93.6,3,96,4.5,97.4
			c1.5,1.4,3.9,1.3,5.3-0.2c0.1-0.1,2.8-2.7,8.7-2.2C24,95.3,28.3,100.5,28.3,100.5z M81.3,111.6c0-2.8,2.3-5.1,5.1-5.1
			s5.1,2.3,5.1,5.1s-2.3,5.1-5.1,5.1S81.3,114.5,81.3,111.6z"/>
		<path fill="#1D304C" d="M2.3,111.6c0,6.9,5.6,12.6,12.6,12.6c6.9,0,12.6-5.6,12.6-12.6c0-6.9-5.6-12.6-12.6-12.6
			C8,99.1,2.3,104.7,2.3,111.6z M9.8,111.6c0-2.8,2.3-5.1,5.1-5.1s5.1,2.3,5.1,5.1s-2.3,5.1-5.1,5.1S9.8,114.5,9.8,111.6z"/>
	</g>
</g>
</svg>
