<?xml version="1.0" encoding="utf-8"?>
<!-- Generator: Adobe Illustrator 18.0.0, SVG Export Plug-In . SVG Version: 6.00 Build 0)  -->
<!DOCTYPE svg PUBLIC "-//W3C//DTD SVG 1.1//EN" "http://www.w3.org/Graphics/SVG/1.1/DTD/svg11.dtd">
<svg version="1.1" xmlns="http://www.w3.org/2000/svg" xmlns:xlink="http://www.w3.org/1999/xlink" x="0px" y="0px"
	 viewBox="0 0 100 150" enable-background="new 0 0 100 150" xml:space="preserve">
<g id="Camada_1" display="none">
</g>
<g id="Camada_2">
	<g>
		<path fill="#1D304C" d="M92.5,57.6c0-0.5,0-1,0-1.4V53h-31l3.8-11.4c0.9-2.6,0.4-5.4-1.1-7.6c-1.6-2.2-4.2-3.5-6.9-3.5l-0.1,0
			c-10.5,0.1-24.5,2-31.7,10c-1.9,2.1-3.5,4.4-4.7,6.7h-9.9c-1.8,0-3.2,1.5-3.2,3.2s1.5,3.2,3.2,3.2h7.3c-2.8,9.8-1,20,4.2,25.6
			c7.3,7.9,19.1,8.8,30.9,8.9L64,95.8c-1.8,2.5-2.9,5.5-2.9,8.8c0,8.3,6.7,15,15,15c8.3,0,15-6.7,15-15c0-8.3-6.7-15-15-15
			c-2.6,0-5,0.6-7.1,1.8l-5.1-3.6c6.5-0.8,14.6-3.1,20.9-9.2C92.7,70.8,92.6,62.9,92.5,57.6z M76.1,96.1c4.7,0,8.5,3.8,8.5,8.5
			c0,4.7-3.8,8.5-8.5,8.5c-4.7,0-8.5-3.8-8.5-8.5C67.7,99.9,71.5,96.1,76.1,96.1z M25.4,52.3c0.2-0.3,0.4-0.7,0.5-1.1
			c1.1-2.2,2.5-4.4,4.3-6.4c6-6.6,19.5-7.8,27-7.9c0.9,0,1.4,0.6,1.6,0.8c0.2,0.3,0.5,0.9,0.3,1.8L54.6,53H25.1
			C25.2,52.8,25.3,52.5,25.4,52.3z M57.7,81.7L57.7,81.7c-12,0-24.3,0-30.7-6.8c-2.7-3-4.3-8.9-3.5-15.4h28.9h8.2H86
			c0,4.3-0.6,9.3-5.8,14.5C73.4,80.7,63.2,81.7,57.7,81.7z"/>
		<circle fill="#1D304C" cx="35.1" cy="104.7" r="3.1"/>
		<circle fill="#1D304C" cx="76.1" cy="104.7" r="3.1"/>
		<path fill="#1D304C" d="M48.8,94.8c1.4-1.1,1.7-3.1,0.6-4.6c-1.1-1.4-3.1-1.7-4.6-0.6l-2.4,1.9c-2.2-1.2-4.7-1.9-7.3-1.9
			c-8.3,0-15,6.7-15,15c0,8.3,6.7,15,15,15c8.3,0,15-6.7,15-15c0-3.2-1-6.2-2.7-8.6L48.8,94.8z M35.1,113.1c-4.7,0-8.5-3.8-8.5-8.5
			c0-4.7,3.8-8.5,8.5-8.5c4.7,0,8.5,3.8,8.5,8.5C43.6,109.3,39.8,113.1,35.1,113.1z"/>
	</g>
</g>
</svg>
