<?xml version="1.0" encoding="utf-8"?>
<!-- Generator: Adobe Illustrator 18.0.0, SVG Export Plug-In . SVG Version: 6.00 Build 0)  -->
<!DOCTYPE svg PUBLIC "-//W3C//DTD SVG 1.1//EN" "http://www.w3.org/Graphics/SVG/1.1/DTD/svg11.dtd">
<svg version="1.1" xmlns="http://www.w3.org/2000/svg" xmlns:xlink="http://www.w3.org/1999/xlink" x="0px" y="0px"
	 viewBox="0 0 100 150" enable-background="new 0 0 100 150" xml:space="preserve">
<g id="Camada_1" display="none">
</g>
<g id="Camada_2">
	<g>
		<path fill="#1D304C" d="M89.3,41.4c-2.4-3.5-5.7-5.5-9.5-5.5L20.1,36c-3.7,0-7,1.9-9.4,5.5c-3.4,5-4.1,12.2-2,18.2
			c-0.1,4.5,0.1,29,14,43.7c6.9,7.2,15.9,10.8,26.9,10.8c11.3,0,20.6-3.7,27.7-11.1c14-14.6,14.1-38.8,14-43.4
			C93.4,53.6,92.7,46.4,89.3,41.4z M35.5,104.5c-3-1.4-5.6-3.3-7.9-5.8c-4.1-4.2-6.8-9.6-8.6-15c1.7-1,3.7-1.6,5.7-1.6
			c7,0,12.6,6.6,12.6,14.8C37.3,99.7,36.6,102.3,35.5,104.5z M72.5,98.5c-2.3,2.4-5,4.4-8,5.8c-1.1-2.2-1.7-4.7-1.7-7.4
			c0-8.2,5.7-14.8,12.6-14.8c2,0,3.9,0.6,5.6,1.6C79.2,89,76.5,94.2,72.5,98.5z M84.9,57.8l-0.3,0.7l0,0.2H66.5
			c-1.8,0-3.3,1.5-3.3,3.3s1.5,3.3,3.3,3.3h18c-0.2,3.1-0.6,7.1-1.6,11.5c-2.3-1.2-4.8-1.9-7.5-1.9c-10.3,0-18.7,9.9-18.7,22
			c0,3.4,0.7,6.6,1.9,9.5c-2.8,0.7-5.8,1-8.9,1c-2.9,0-5.6-0.3-8.1-0.9c1.2-2.9,1.9-6.2,1.9-9.7c0-12.1-8.4-22-18.7-22
			c-2.7,0-5.3,0.7-7.6,1.9c-0.9-4.4-1.4-8.4-1.6-11.5h16.5c1.8,0,3.3-1.5,3.3-3.3s-1.5-3.3-3.3-3.3H15.3l0-0.2l-0.3-0.7
			c-1.6-4.1-1.2-9.3,1.1-12.7c0.8-1.2,2.1-2.6,4-2.6l59.8-0.1c1.8,0,3.2,1.4,4,2.6C86.1,48.5,86.6,53.7,84.9,57.8z"/>
	</g>
</g>
</svg>
