<?xml version="1.0" encoding="utf-8"?>
<!-- Generator: Adobe Illustrator 18.0.0, SVG Export Plug-In . SVG Version: 6.00 Build 0)  -->
<!DOCTYPE svg PUBLIC "-//W3C//DTD SVG 1.1//EN" "http://www.w3.org/Graphics/SVG/1.1/DTD/svg11.dtd">
<svg version="1.1" xmlns="http://www.w3.org/2000/svg" xmlns:xlink="http://www.w3.org/1999/xlink" x="0px" y="0px"
	 viewBox="0 0 100 150" enable-background="new 0 0 100 150" xml:space="preserve">
<g id="Camada_1" display="none">
</g>
<g id="Camada_2">
	<g>
		<path fill="#1D304C" d="M33,39.7c0.1,0.1,0.1,0.2,0.1,0.4l-0.5,2.8c-0.1,0.3,0.3,0.6,0.6,0.5l2.5-1.3c0.1-0.1,0.3-0.1,0.4,0
			l2.5,1.3c0.3,0.2,0.7-0.1,0.6-0.5l-0.5-2.8c0-0.1,0-0.3,0.1-0.4l2-2c0.3-0.2,0.1-0.7-0.2-0.7L38,36.6c-0.1,0-0.3-0.1-0.3-0.2
			l-1.3-2.6c-0.2-0.3-0.6-0.3-0.8,0l-1.3,2.6c-0.1,0.1-0.2,0.2-0.3,0.2L31.2,37c-0.4,0.1-0.5,0.5-0.2,0.7L33,39.7z"/>
		<path fill="#1D304C" d="M61.6,39.7c0.1,0.1,0.1,0.2,0.1,0.4l-0.5,2.8c-0.1,0.3,0.3,0.6,0.6,0.5l2.5-1.3c0.1-0.1,0.3-0.1,0.4,0
			l2.5,1.3c0.3,0.2,0.7-0.1,0.6-0.5l-0.5-2.8c0-0.1,0-0.3,0.1-0.4l2-2c0.3-0.2,0.1-0.7-0.2-0.7l-2.8-0.4c-0.1,0-0.3-0.1-0.3-0.2
			l-1.3-2.6c-0.2-0.3-0.6-0.3-0.8,0l-1.3,2.6c-0.1,0.1-0.2,0.2-0.3,0.2L59.8,37c-0.4,0.1-0.5,0.5-0.2,0.7L61.6,39.7z"/>
		<path fill="#1D304C" d="M47.5,32.5c0.1,0.1,0.1,0.2,0.1,0.4l-0.5,2.8c-0.1,0.3,0.3,0.6,0.6,0.5l2.5-1.3c0.1-0.1,0.3-0.1,0.4,0
			l2.5,1.3c0.3,0.2,0.7-0.1,0.6-0.5l-0.5-2.8c0-0.1,0-0.3,0.1-0.4l2-2c0.3-0.2,0.1-0.7-0.2-0.7l-2.8-0.4c-0.1,0-0.3-0.1-0.3-0.2
			l-1.3-2.6c-0.2-0.3-0.6-0.3-0.8,0l-1.3,2.6c-0.1,0.1-0.2,0.2-0.3,0.2l-2.8,0.4c-0.4,0.1-0.5,0.5-0.2,0.7L47.5,32.5z"/>
		<path fill="#1D304C" d="M89.1,33.3c-1.9,0-3.4,1.5-3.4,3.4v13.2c-2.1-1.3-4.6-2.1-7.3-2.1H21.7c-2.7,0-5.2,0.8-7.3,2.1V36.7
			c0-1.9-1.5-3.4-3.4-3.4s-3.4,1.5-3.4,3.4V62v42.5v19h6.8v-19h71.3v19h6.8v-19V62V36.7C92.5,34.8,91,33.3,89.1,33.3z M66.4,82.4
			V54.7h6.2v27.6c0,0.2,0,0.5,0.1,0.7h-6.3C66.4,82.8,66.4,82.6,66.4,82.4z M53.4,82.4V54.7h6.2v27.6c0,0.2,0,0.5,0.1,0.7h-6.3
			C53.4,82.8,53.4,82.6,53.4,82.4z M40.4,82.4V54.7h6.2v27.6c0,0.2,0,0.5,0.1,0.7h-6.3C40.4,82.8,40.4,82.6,40.4,82.4z M27.4,82.4
			V54.7h6.2v27.6c0,0.2,0,0.5,0.1,0.7h-6.3C27.3,82.8,27.4,82.6,27.4,82.4z M14.3,62c0-3.7,2.7-6.7,6.2-7.2v27.5
			c0,0.2,0,0.5,0.1,0.7h-6.3V62z M85.7,97.7H14.3v-7.8h71.3V97.7z M85.7,83.1h-6.3c0.1-0.2,0.1-0.5,0.1-0.7V54.8
			c3.5,0.6,6.2,3.6,6.2,7.2V83.1z"/>
	</g>
</g>
</svg>
