<?xml version="1.0" encoding="utf-8"?>
<!-- Generator: Adobe Illustrator 18.0.0, SVG Export Plug-In . SVG Version: 6.00 Build 0)  -->
<!DOCTYPE svg PUBLIC "-//W3C//DTD SVG 1.1//EN" "http://www.w3.org/Graphics/SVG/1.1/DTD/svg11.dtd">
<svg version="1.1" xmlns="http://www.w3.org/2000/svg" xmlns:xlink="http://www.w3.org/1999/xlink" x="0px" y="0px"
	 viewBox="0 0 100 150" enable-background="new 0 0 100 150" xml:space="preserve">
<g id="Camada_1" display="none">
</g>
<g id="Camada_2">
	<g>
		<path fill="#1D304C" d="M83.7,48.1H72c0.6-4,2-7.7,2.9-9.6c0.5-1,0.4-2.2-0.2-3.2c-0.6-0.9-1.6-1.5-2.8-1.5H32.8
			c-0.9,0-1.8,0.4-2.5,1.1c-3.7,4.2-5.2,8.8-5.4,13.2h-8.5c-4.9,0-8.8,4-8.8,8.8v50.4c0,4.9,4,8.8,8.8,8.8h67.3c4.9,0,8.8-4,8.8-8.8
			V57C92.5,52.1,88.5,48.1,83.7,48.1z M34.3,40.3h32.8c-1.6,4.9-3.3,12.9-0.9,19.7l-31.7-0.3C32.6,56.6,28.5,48.1,34.3,40.3z
			 M85.9,107.4c0,1.3-1,2.3-2.3,2.3H16.3c-1.3,0-2.3-1-2.3-2.3V78.3h71.9V107.4z M85.9,71.7H14.1V57c0-1.3,1-2.3,2.3-2.3h9.1
			c0.4,2,1.1,3.8,1.8,5.4h-1.9c-1.8,0-3.3,1.5-3.3,3.3c0,1.8,1.5,3.3,3.3,3.3h46.5c0,0,0,0,0,0h2.6c1.8,0,3.3-1.5,3.3-3.3
			c0-1.8-1.5-3.3-3.3-3.3h-1c-1-1.6-1.6-3.4-1.8-5.4h11.9c1.3,0,2.3,1,2.3,2.3V71.7z"/>
	</g>
</g>
</svg>
