<svg xmlns="http://www.w3.org/2000/svg" viewBox="0 0 175.21 171.1"><defs><style>.cls-1{fill:#56e223;}.cls-2{fill:#fff;}</style></defs><g id="Camada_2" data-name="Camada 2"><g id="Layer_1" data-name="Layer 1"><rect class="cls-1" width="175.21" height="171.1"/><circle class="cls-2" cx="69.96" cy="129.8" r="4.32"/><circle class="cls-2" cx="62.68" cy="141.18" r="4.02"/><path class="cls-2" d="M77.9,99.14H57c-9.29,0-16.36-3.94-19.91-11.09A24.31,24.31,0,0,1,39.47,63.4c5-6.65,13.26-9.28,23.13-7.4l3.47.66a1,1,0,0,0,1.11-.76l.63-3.47C69.76,41.68,79,35.91,87.36,35c7.6-.87,14.28,1.79,18.79,7.26a.93.93,0,0,0,.92.31,44.07,44.07,0,0,1,8.48-1.15.43.43,0,0,0,.36-.65c-6.15-10.49-17.14-16-29.56-14.6S63.86,35.6,60.13,46.68c-11.45-1-21.41,3-27.75,11.35a33.06,33.06,0,0,0-3.21,34c5,10.13,15.12,16,27.69,16l.18,0v0H71.61a1.24,1.24,0,0,0,1-.51l5.64-7.69A.43.43,0,0,0,77.9,99.14Z"/><path class="cls-2" d="M145.15,61c-5.28-9.19-14.7-14.38-26.59-14.72a40.66,40.66,0,0,0-9.31.8h0A38.46,38.46,0,0,0,84.1,64.9a41.46,41.46,0,0,0-4.54,32.34.44.44,0,0,0,.74.19l6.66-7a.93.93,0,0,0,.24-.73,32.41,32.41,0,0,1,4.5-20.21,29.15,29.15,0,0,1,20.22-13.88C114.15,70,103.74,80.5,92,92.41L88.45,96a82.84,82.84,0,0,0-10.18,12h0c-1.06,1.52-2.39,3.42-4.34,6.12a4.45,4.45,0,0,0,7.21,5.21c2-2.77,3.34-4.7,4.42-6.25A62.64,62.64,0,0,1,89.35,108h30.09c10.85,0,20.1-5.21,25.41-14.32A33.19,33.19,0,0,0,145.15,61Zm-8,28.22c-3.72,6.39-10,9.9-17.74,9.9H97.8c.15-.16.31-.32.47-.47,11.78-11.91,24.87-25.16,22.6-43.32,9.36,1,14.17,5.91,16.58,10.1A24.48,24.48,0,0,1,137.16,89.24Z"/></g></g></svg>