<?xml version="1.0" encoding="utf-8"?>
<!-- Generator: Adobe Illustrator 24.0.1, SVG Export Plug-In . SVG Version: 6.00 Build 0)  -->
<svg version="1.1" xmlns="http://www.w3.org/2000/svg" xmlns:xlink="http://www.w3.org/1999/xlink" x="0px" y="0px"
	 viewBox="0 0 100 150" enable-background="new 0 0 100 150" xml:space="preserve">
<g id="Camada_1" display="none">
</g>
<g id="Camada_2">
	<g>
		<path fill="#1D304C" d="M50.6,37.5c-13.4,0-24.2,10.9-24.2,24.2S37.3,86,50.6,86s24.2-10.9,24.2-24.2S64,37.5,50.6,37.5z M50.6,81
			C40,81,31.4,72.4,31.4,61.8S40,42.5,50.6,42.5c3,0,5.8,0.7,8.3,1.9L37.3,66.1c-0.6,0.6-0.6,1.5,0,2.1c0.3,0.3,0.7,0.4,1.1,0.4
			s0.8-0.1,1.1-0.4L61.6,46c1,0.7,1.9,1.5,2.8,2.4L47,65.8c-0.6,0.6-0.6,1.5,0,2.1c0.3,0.3,0.7,0.4,1.1,0.4s0.8-0.1,1.1-0.4
			l17.2-17.2c2.2,3.1,3.5,6.9,3.5,11C69.8,72.4,61.2,81,50.6,81z"/>
		<path fill="#1D304C" d="M84.8,90.9c-0.8,0-1.5,0.7-1.5,1.5v4.6c0,0.8,0.7,1.5,1.5,1.5s1.5-0.7,1.5-1.5v-4.6
			C86.3,91.5,85.6,90.9,84.8,90.9z"/>
		<path fill="#1D304C" d="M83.3,83.3v4.6c0,0.8,0.7,1.5,1.5,1.5s1.5-0.7,1.5-1.5v-4.6c0-0.8-0.7-1.5-1.5-1.5S83.3,82.5,83.3,83.3z"
			/>
		<path fill="#1D304C" d="M84.1,90.1c0-0.8-0.7-1.5-1.5-1.5H78c-0.8,0-1.5,0.7-1.5,1.5s0.7,1.5,1.5,1.5h4.6
			C83.4,91.6,84.1,91,84.1,90.1z"/>
		<path fill="#1D304C" d="M91.6,88.6H87c-0.8,0-1.5,0.7-1.5,1.5s0.7,1.5,1.5,1.5h4.6c0.8,0,1.5-0.7,1.5-1.5S92.4,88.6,91.6,88.6z"/>
		<path fill="#1D304C" d="M86.8,45h1v1c0,0.8,0.7,1.5,1.5,1.5s1.5-0.7,1.5-1.5v-1h1c0.8,0,1.5-0.7,1.5-1.5S92.7,42,91.8,42h-1v-1
			c0-0.8-0.7-1.5-1.5-1.5s-1.5,0.7-1.5,1.5v1h-1c-0.8,0-1.5,0.7-1.5,1.5S85.9,45,86.8,45z"/>
		<path fill="#1D304C" d="M21.5,89.1h-1v-1c0-0.8-0.7-1.5-1.5-1.5s-1.5,0.7-1.5,1.5v1h-1c-0.8,0-1.5,0.7-1.5,1.5s0.7,1.5,1.5,1.5h1
			v1c0,0.8,0.7,1.5,1.5,1.5s1.5-0.7,1.5-1.5v-1h1c0.8,0,1.5-0.7,1.5-1.5S22.3,89.1,21.5,89.1z"/>
		<path fill="#1D304C" d="M16.5,42.2v-4.6c0-0.8-0.7-1.5-1.5-1.5s-1.5,0.7-1.5,1.5v4.6c0,0.8,0.7,1.5,1.5,1.5S16.5,43.1,16.5,42.2z"
			/>
		<path fill="#1D304C" d="M15,34.7c0.8,0,1.5-0.7,1.5-1.5v-4.6c0-0.8-0.7-1.5-1.5-1.5s-1.5,0.7-1.5,1.5v4.6
			C13.5,34,14.1,34.7,15,34.7z"/>
		<path fill="#1D304C" d="M14.2,35.4c0-0.8-0.7-1.5-1.5-1.5H8.2c-0.8,0-1.5,0.7-1.5,1.5s0.7,1.5,1.5,1.5h4.6
			C13.6,36.9,14.2,36.3,14.2,35.4z"/>
		<path fill="#1D304C" d="M15.7,35.4c0,0.8,0.7,1.5,1.5,1.5h4.6c0.8,0,1.5-0.7,1.5-1.5s-0.7-1.5-1.5-1.5h-4.6
			C16.4,33.9,15.7,34.6,15.7,35.4z"/>
		<path fill="#1D304C" d="M50.6,26C30.9,26,14.8,42,14.8,61.8c0,16.5,11.2,30.7,27,34.7c0,0.1,0,0.2,0,0.3c0,0.6-0.1,1.2-0.1,1.8
			V116c0,4.9,4,8.9,8.9,8.9s8.9-4,8.9-8.9V98.3c0-0.5,0-1.2,0-1.9c15.7-4,26.9-18.3,26.9-34.7C86.4,42,70.4,26,50.6,26z M56.5,89.9
			c-4,0.8-4,5.5-4,8.4V116c0,1-0.9,1.9-1.9,1.9s-1.9-0.9-1.9-1.9V98.5c0-0.4,0-0.9,0.1-1.4c0.1-2.1,0.4-6.4-3.4-7.1
			c-13.6-2.5-23.5-14.4-23.5-28.3C21.8,45.9,34.7,33,50.6,33s28.8,12.9,28.8,28.8C79.4,75.3,69.8,87.2,56.5,89.9z"/>
	</g>
</g>
</svg>
