<?xml version="1.0" encoding="utf-8"?>
<!-- Generator: Adobe Illustrator 18.0.0, SVG Export Plug-In . SVG Version: 6.00 Build 0)  -->
<!DOCTYPE svg PUBLIC "-//W3C//DTD SVG 1.1//EN" "http://www.w3.org/Graphics/SVG/1.1/DTD/svg11.dtd">
<svg version="1.1" xmlns="http://www.w3.org/2000/svg" xmlns:xlink="http://www.w3.org/1999/xlink" x="0px" y="0px"
	 viewBox="0 0 100 150" enable-background="new 0 0 100 150" xml:space="preserve">
<g id="Camada_1">
</g>
<g id="Camada_2">
	<g>
		<circle fill="#1D304C" cx="69.8" cy="93.8" r="8.9"/>
		<circle fill="#1D304C" cx="82" cy="80.5" r="5.6"/>
		<circle fill="#1D304C" cx="89.3" cy="66" r="3.2"/>
		<circle fill="#1D304C" cx="10.7" cy="68.1" r="3.2"/>
		<circle fill="#1D304C" cx="16.2" cy="80.9" r="5.6"/>
		<circle fill="#1D304C" cx="29" cy="93.8" r="8.9"/>
		<path fill="#1D304C" d="M49.5,85.3c25.8,0,41.2-23.6,41.2-46.5c0-2.2-1.8-4-4-4c-2.2,0-4,1.8-4,4c0,15.9-10.3,38.4-33.1,38.4
			c-20.4,0-33.1-19.9-33.1-38.4c0-2.2-1.8-4-4-4s-4,1.8-4,4C8.3,61.1,24,85.3,49.5,85.3z"/>
		<path fill="#1D304C" d="M48.8,89.4c-4.9,0-8.9,12.1-8.9,17c0,4.9,4,8.9,8.9,8.9c4.9,0,8.9-4,8.9-8.9
			C57.7,101.5,53.7,89.4,48.8,89.4z M51.8,110.5c-0.2,0.6-0.8,0.9-1.4,0.9c-0.2,0-0.4,0-0.6-0.1c-0.8-0.3-1.1-1.2-0.8-2
			c0.9-2.1,1.1-4.4,0.7-7c-0.1-0.8,0.4-1.6,1.2-1.8c0.8-0.1,1.6,0.4,1.8,1.2C53.2,104.9,52.9,107.9,51.8,110.5z"/>
		<path fill="#1D304C" d="M52.5,107.3"/>
	</g>
</g>
</svg>
