<?xml version="1.0" encoding="utf-8"?>
<!-- Generator: Adobe Illustrator 18.0.0, SVG Export Plug-In . SVG Version: 6.00 Build 0)  -->
<!DOCTYPE svg PUBLIC "-//W3C//DTD SVG 1.1//EN" "http://www.w3.org/Graphics/SVG/1.1/DTD/svg11.dtd">
<svg version="1.1" xmlns="http://www.w3.org/2000/svg" xmlns:xlink="http://www.w3.org/1999/xlink" x="0px" y="0px"
	 viewBox="0 0 100 150" enable-background="new 0 0 100 150" xml:space="preserve">
<g id="Camada_1">
</g>
<g id="Camada_2">
	<path fill="#1D304C" d="M90.3,34.7c-1.2-1.2-3.1-1.9-5.4-1.9c-4,0-9.4,1.9-14,5c-1.7,1.1-3.4,2.5-5.1,3.9
		c-4.9-0.7-22.1-3.1-33.9-3.1c-8.5,0-12.3,1.2-13.7,4.2c-0.4,0.9-0.8,2.4,0,4.2c0.5,1.3,1.7,2.7,3.2,4.1c-0.6,2,0.2,4.3,2.1,5.4
		c1.7,1,3.7,0.8,5.1-0.3c1.3,0.8,2.8,1.6,4.2,2.3c-0.8,2.1,0,4.5,2,5.7c2.2,1.3,4.9,0.5,6.3-1.6c0.9,0.4,1.8,0.8,2.7,1.2
		c-3,3.1-6.3,6.8-9.3,10.4l-20-1.3c-1.5-0.1-3.1,0.3-4.3,1.2c-1.9,1.3-2.9,3.3-2.7,5.5c0.2,2.5,1.9,4.9,4.6,6.2l11.6,5.9
		c-0.8,3-0.4,5.8,1.7,7.9c0.9,0.9,2.4,1.9,4.8,1.9c0.9,0,1.8-0.2,2.8-0.4l5.8,11.5c1.4,2.8,4,4.6,6.7,4.6h0c2,0,3.8-1,5-2.7
		c0.9-1.2,1.3-2.8,1.2-4.3l-1.3-19.7c3.7-3,7.4-6.3,10.7-9.3c0.3,0.8,0.7,1.6,1.1,2.5c-2.1,1.3-2.9,4.1-1.6,6.3c1.2,2,3.6,2.8,5.7,2
		c0.8,1.5,1.6,2.9,2.3,4.2c-1.1,1.5-1.3,3.5-0.3,5.1c1.1,1.9,3.3,2.7,5.3,2.2c2.7,3,4.6,3.6,6.3,3.6c0.7,0,1.4-0.2,2.1-0.5
		c3.5-1.6,5.3-6.7,3.5-27c-0.7-8.1-1.8-16-2.3-19.7c1.6-1.7,3-3.5,4.3-5.3C92.1,48,94.5,39,90.3,34.7z M44.8,109.5l-4.7-9.2l4-2.7
		l0.8,12.2C44.9,109.6,44.8,109.6,44.8,109.5z M31.9,45.3c8.4,0,20.2,1.4,27.5,2.3L48.5,58.5c-10.6-4.6-20-9.9-23.1-12.8
		C26.6,45.5,28.6,45.3,31.9,45.3z M14.9,79.7l12.2,0.8l-2.8,4l-9.2-4.7C15.1,79.8,15,79.8,14.9,79.7z M79.2,99.5
		c-2.9-3-8.3-12.5-12.9-23.2l4.8-4.8c0.8-0.8,1.7-1.5,2.6-2.4c1.1-1,2.4-2.1,3.6-3.3C79.2,80,80.2,94.4,79.2,99.5z M82,50.8
		c-0.3,0.4-0.6,0.8-0.9,1.2L66.4,66.7c-0.8,0.7-1.6,1.5-2.3,2.2c-15,15-29.3,25.9-34,25.9c0,0-0.1,0-0.1,0
		c-0.3-0.9-0.6-7.2,26.1-33.9c1.2-1.2,2.4-2.5,3.8-4c4.2-4.4,9.4-10,14.6-13.4c4-2.7,8-3.8,10.3-3.8c0.4,0,0.6,0,0.7,0.1
		C86.1,40.9,85.6,45.6,82,50.8z"/>
</g>
</svg>
