<?xml version="1.0" encoding="utf-8"?>
<!-- Generator: Adobe Illustrator 18.0.0, SVG Export Plug-In . SVG Version: 6.00 Build 0)  -->
<!DOCTYPE svg PUBLIC "-//W3C//DTD SVG 1.1//EN" "http://www.w3.org/Graphics/SVG/1.1/DTD/svg11.dtd">
<svg version="1.1" xmlns="http://www.w3.org/2000/svg" xmlns:xlink="http://www.w3.org/1999/xlink" x="0px" y="0px"
	 viewBox="0 0 100 150" enable-background="new 0 0 100 150" xml:space="preserve">
<g id="Camada_1">
</g>
<g id="Camada_2">
	<path fill="#1D304C" d="M66.9,63.2c1.5-4.3,3.8-11.9,3.8-18.2c0-6-3.2-11.3-8.1-13.4c-4-1.8-8.5-1.2-12.6,1.6
		c-4.1-2.8-8.6-3.4-12.6-1.6c-4.9,2.2-8.1,7.4-8.1,13.4c0,6.3,1.8,14.1,2.9,18.4c-17.7,8.4-25.7,28-25.7,44.5v2.7l19.4,6.3l0.4,0.1
		c7.8,1.6,15.8,2.4,23.7,2.4c8,0,15.9-0.8,23.7-2.4l19.8-6.5v-2.7C93.5,91.8,85.1,71.5,66.9,63.2z M39.9,63.6
		c-0.1-0.4-0.3-1-0.5-1.7c2.9,1.3,6.4,2.3,10.2,2.3c3.6,0,6.9-0.9,9.8-2.1c-0.2,0.5-0.3,0.8-0.4,1.1c-2.5,2.8-6,4.3-9.7,4.3
		C45.7,67.6,42.4,66.1,39.9,63.6z M40.4,38.3c2-0.9,4.5-0.1,7,2.1c0.7,0.7,1.7,1,2.6,1c0,0,0,0,0,0c0,0,0,0,0,0c0.9,0,1.9-0.3,2.6-1
		c2.5-2.3,5-3,7-2.1c2.2,1,3.7,3.7,3.7,6.7c0,2.2-0.4,4.6-0.9,7c-2,1.5-7.3,4.8-12.8,4.8c-5.5,0-10.3-3.2-12.3-4.7
		c-0.4-2.4-0.7-4.9-0.7-7.2C36.7,41.9,38.2,39.2,40.4,38.3z M72,109.9c-14.5,3-29.6,3-44.1,0l-14-4.6c0.8-13.3,7.7-28.9,21.8-35.4
		c3.7,3.3,8.5,5.1,13.5,5.1c5.2,0,10.1-1.9,13.8-5.4c14.2,6.2,22,21.9,22.9,35.7L72,109.9z"/>
</g>
</svg>
