<?xml version="1.0" encoding="utf-8"?>
<!-- Generator: Adobe Illustrator 18.0.0, SVG Export Plug-In . SVG Version: 6.00 Build 0)  -->
<!DOCTYPE svg PUBLIC "-//W3C//DTD SVG 1.1//EN" "http://www.w3.org/Graphics/SVG/1.1/DTD/svg11.dtd">
<svg version="1.1" xmlns="http://www.w3.org/2000/svg" xmlns:xlink="http://www.w3.org/1999/xlink" x="0px" y="0px"
	 viewBox="0 0 100 150" enable-background="new 0 0 100 150" xml:space="preserve">
<g id="Camada_1" display="none">
</g>
<g id="Camada_2">
	<g>
		<path fill="#1D304C" d="M74.3,40.5h-0.5l5.6-8.3c1.1-1.6,0.7-3.8-0.9-4.9c-1.6-1.1-3.8-0.7-4.9,0.9l-8,11.7
			c-0.1,0.2-0.2,0.4-0.3,0.6H46.5c-1.4-5.5-6.5-9.2-13.1-9.2c-7.5,0-13.5,6.1-13.5,13.5S26,58.3,33.4,58.3c1.3,0,2.6-0.2,3.8-0.6
			L52.7,84v21.5c-6.5,0.4-18.5,2-18.5,8.8c0,8.5,18.3,8.9,22,8.9s22-0.4,22-8.9c0-6.9-12-8.5-18.5-8.8V83.9l19.5-34.8
			c1.1-1.8,1.1-4,0.1-5.8C78.3,41.6,76.4,40.4,74.3,40.5z M37.4,40.5c-2,0-3.8,1.2-4.8,3.1c-1.1,2-1,4.5,0.1,6.3l0.8,1.4
			c0,0,0,0-0.1,0c-3.6,0-6.5-2.9-6.5-6.5s2.9-6.5,6.5-6.5c2.1,0,4.2,0.7,5.4,2.2H37.4z M69.8,114.3c-2.4,0.9-7.1,1.9-13.5,1.9
			s-11.1-1-13.5-1.9c2.4-0.9,7.1-1.9,13.5-1.9C62.7,112.4,67.4,113.4,69.8,114.3z M56.2,76l-8.5-14.5h16.7L56.2,76z M68.2,54.5H43.5
			l-4.1-7h32.8L68.2,54.5z"/>
	</g>
</g>
</svg>
